<svg xmlns="http://www.w3.org/2000/svg" viewBox="0 0 60.39 60.39"><defs><style>.cls-1{fill:#683223;}</style></defs><title>icon-mail</title><g id="圖層_2" data-name="圖層 2"><g id="圖層_1-2" data-name="圖層 1"><path class="cls-1" d="M43.69,38.26a.7.7,0,0,0,.45.17.67.67,0,0,0,.47-.2.61.61,0,0,0,0-.89l-7.23-6.71a.67.67,0,0,0-.92,0,.63.63,0,0,0,0,.9Z"/><path class="cls-1" d="M21.58,30.63l-7.22,6.71a.62.62,0,0,0,0,.89.67.67,0,0,0,.48.2.66.66,0,0,0,.44-.17l7.23-6.71a.63.63,0,0,0,0-.9A.68.68,0,0,0,21.58,30.63Z"/><path class="cls-1" d="M30.19,0a30.2,30.2,0,1,0,30.2,30.19A30.19,30.19,0,0,0,30.19,0ZM14.5,19.41H44.44a1.6,1.6,0,0,1,1,.4l-14.91,12a1.82,1.82,0,0,1-2.19,0l-14.91-12A1.55,1.55,0,0,1,14.5,19.41ZM46,38.05a1.53,1.53,0,0,1-1.55,1.51H14.5A1.53,1.53,0,0,1,13,38.05V21.4L28.3,33.74a2,2,0,0,0,2.35,0L46,21.4Z"/></g></g></svg>