<svg xmlns="http://www.w3.org/2000/svg" viewBox="0 0 60.69 60.69"><defs><style>.cls-1{fill:#683223;}</style></defs><title>icon-ig</title><g id="圖層_2" data-name="圖層 2"><g id="圖層_1-2" data-name="圖層 1"><path class="cls-1" d="M30.34,24.79a5.55,5.55,0,1,0,5.56,5.55A5.55,5.55,0,0,0,30.34,24.79Z"/><path class="cls-1" d="M43.32,20.53a5.36,5.36,0,0,0-1.25-1.92,5.17,5.17,0,0,0-1.92-1.24,8.86,8.86,0,0,0-3.08-.57c-1.75-.08-2.28-.1-6.73-.1s-5,0-6.71.1a9.12,9.12,0,0,0-3.1.57,5.3,5.3,0,0,0-1.91,1.24,5.21,5.21,0,0,0-1.24,1.92,9.3,9.3,0,0,0-.58,3.09c-.08,1.75-.1,2.28-.1,6.72s0,5,.1,6.72a9.18,9.18,0,0,0,.58,3.09,5,5,0,0,0,1.24,1.91,5.07,5.07,0,0,0,1.91,1.25,9.31,9.31,0,0,0,3.1.58c1.75.07,2.28.09,6.71.09s5,0,6.73-.09a9,9,0,0,0,3.08-.58,5,5,0,0,0,1.92-1.25,5.16,5.16,0,0,0,1.25-1.91,9.06,9.06,0,0,0,.56-3.09c.09-1.75.1-2.27.1-6.72s0-5-.1-6.72A9.17,9.17,0,0,0,43.32,20.53Zm-13,18.35a8.54,8.54,0,1,1,8.55-8.54A8.53,8.53,0,0,1,30.34,38.88Zm8.88-15.42a2,2,0,1,1,2-2A2,2,0,0,1,39.22,23.46Z"/><path class="cls-1" d="M51.8,8.89a30.33,30.33,0,1,0,8.89,21.45A30.26,30.26,0,0,0,51.8,8.89ZM46.88,37.2a12.26,12.26,0,0,1-.77,4,8,8,0,0,1-1.92,2.95,8.21,8.21,0,0,1-2.95,1.92,12.19,12.19,0,0,1-4,.77c-1.77.08-2.34.1-6.87.1s-5.08,0-6.85-.1a12.2,12.2,0,0,1-4-.77,8.38,8.38,0,0,1-2.95-1.92,8.29,8.29,0,0,1-1.92-2.95,12.26,12.26,0,0,1-.77-4c-.08-1.77-.1-2.34-.1-6.86s0-5.08.1-6.86a12.14,12.14,0,0,1,.77-4A8.21,8.21,0,0,1,16.5,16.5a8.11,8.11,0,0,1,2.95-1.92,12,12,0,0,1,4-.77c1.77-.08,2.34-.1,6.85-.1s5.1,0,6.87.1a11.94,11.94,0,0,1,4,.77,8.51,8.51,0,0,1,4.87,4.87,12.14,12.14,0,0,1,.77,4c.09,1.78.1,2.34.1,6.86S47,35.43,46.88,37.2Z"/></g></g></svg>