<svg xmlns="http://www.w3.org/2000/svg" viewBox="0 0 1043.77 353.64"><defs><style>.cls-1{fill:#693324;}.cls-2{fill:#f7bb80;}.cls-3{fill:#eb6160;}.cls-4{fill:#feefe5;}</style></defs><title>logo</title><g id="圖層_2" data-name="圖層 2"><g id="圖層_1-2" data-name="圖層 1"><path class="cls-1" d="M550.72,195.33c-13,.86-46.92.86-65.09,0-25.73-1.3-36.54-10.17-36.54-33.09v-27.9q-25.95,4.22-51.9,7.79c-6.06.86-9.95-1.95-10.82-8s1.73-9.95,7.79-10.81c18.38-2.6,36.54-5.2,54.93-8.22v-24c-13.63,2-27,3.68-40.66,5.41-6.27.86-9.95-1.73-10.81-7.78s1.51-10,7.78-10.82c14.49-1.73,29.2-3.67,43.69-5.84V48.93c-15.14,1.51-30.49,2.59-45.42,2.81-5.62.21-9.08-2.38-9.73-7.14q-1-7.45,7.79-8.43c38.92-5,76.12-12.76,115-32.22,10.38-5.41,19-3.46,24,6.48,5,9.73,1.52,18.17-9.29,21.84a326.59,326.59,0,0,1-45.2,11.47v22.7c19.68-3.24,39.14-6.7,58.82-10.6,6.27-1.29,10.16,1.74,11,7.79s-2,9.73-8,10.81c-20.55,4.11-41.31,7.79-61.85,11v23.36q38.28-6.49,76.55-14.28c6.06-1.29,10.17,2.17,11,8,.87,6-2,9.51-8,10.81-26.6,5.4-53,10.38-79.58,14.92v22.49c0,7.78,4.33,10.81,11.46,11.46,13.19,1.08,36.76,1.08,47.79,0,10.17-1.08,12.33-6.05,12.33-27,0-5.62,2.81-8.65,7.13-8.65s7.57,2.16,8.65,7.35C584,182.35,575.59,193.6,550.72,195.33Z"/><path class="cls-1" d="M788.6,195.33c-13,.86-46.93.86-65.1,0C697.77,194,687,185.16,687,162.24v-27.9q-26,4.22-51.9,7.79c-6.06.86-9.95-1.95-10.81-8s1.73-9.95,7.78-10.81c18.38-2.6,36.55-5.2,54.93-8.22v-24c-13.62,2-27,3.68-40.66,5.41-6.27.86-9.94-1.73-10.81-7.78s1.52-10,7.79-10.82c14.49-1.73,29.19-3.67,43.68-5.84V48.93c-15.14,1.51-30.49,2.59-45.41,2.81-5.63.21-9.09-2.38-9.73-7.14q-1-7.45,7.78-8.43c38.93-5,76.12-12.76,115-32.22,10.38-5.41,19-3.46,24,6.48,5,9.73,1.51,18.17-9.3,21.84a326.59,326.59,0,0,1-45.2,11.47v22.7c19.68-3.24,39.14-6.7,58.82-10.6,6.27-1.29,10.17,1.74,11,7.79s-1.94,9.73-8,10.81c-20.54,4.11-41.3,7.79-61.85,11v23.36q38.28-6.49,76.55-14.28c6.06-1.29,10.17,2.17,11,8,.87,6-1.94,9.51-8,10.81-26.6,5.4-53,10.38-79.58,14.92v22.49c0,7.78,4.33,10.81,11.47,11.46,13.19,1.08,36.76,1.08,47.78,0,10.17-1.08,12.33-6.05,12.33-27,0-5.62,2.81-8.65,7.14-8.65s7.57,2.16,8.65,7.35C821.9,182.35,813.46,193.6,788.6,195.33Z"/><path class="cls-1" d="M1043.77,21V190.14c0,9.29-5.62,13-16,13-9.95,0-14.71-3.46-15.14-11.68H898.23c-.43,8.44-5.19,11.9-15.13,11.9-10.38,0-16-3.25-16-13V21c0-9.08,5-14.06,14.06-14.06h148.56C1038.79,7,1043.77,12,1043.77,21Zm-145.54,6.7V139.32c.87-3.89,3.9-6.49,9.52-7.36a322.44,322.44,0,0,0,41.73-8.86c4.11-1.3,7.14-.43,8.44,3.24,1.29,3.89,0,6.71-3.68,9.09-13,8.21-27.46,15.56-40.65,19-8.22,2.17-13.41-.21-15.14-8,0-.43-.22-.65-.22-1.08v27.9h114.4V27.73a2.5,2.5,0,0,0-2.6-2.59H900.83A2.5,2.5,0,0,0,898.23,27.73Zm2.6,29.63c0-5.62,3.24-8.65,8.86-8.65h44.55V39c0-8.44,4.76-11.9,11.89-11.9s12.12,3.25,12.12,11.68v10h10.16l-1.08-2c-1.73-3.89-3.46-6.7-5.41-10.81-1.73-3.68-1.08-7.14,2.38-8.87,3.89-1.94,6.92-1.08,9.73,1.3a57.82,57.82,0,0,1,8.87,9.73c3,4.33,3,7.79.43,10.82,4.11.64,6.06,3.67,6.06,8.43,0,5.62-3,8.65-8.66,8.65H978.68c.21,11.46.65,21.41,1.51,30.27,1.73-4.54,3.24-9.29,5-14.48,2.59-7.57,8-10.38,14.7-8.44,6.49,2,9.52,7.35,6.7,14.92-5.84,16-12.76,29.63-21,41.31,1.73,5.19,3.67,8.65,5.84,10.59s3.46-2.81,4.32-16.65c.22-4.76,2.38-6.92,6.06-6.92s6,1.73,6.48,6.49c2.6,37.41-3.24,50-17.51,46.71-8.87-2.16-16.22-9.08-22.06-21.19a104.53,104.53,0,0,1-31.36,19.89c-4.54,2-8.65,1.08-10.38-2.81s-.21-6.92,4.11-9.51c13.84-8.22,23.79-16.44,31.36-26C958.35,114,955.75,93,954.67,66h-45C904.07,66,900.83,63,900.83,57.36Zm51.68,28.11v24.22c0,9.08-3.68,12.54-12.76,12.54h-24c-9.08,0-12.76-3.46-12.76-12.54V85.47c0-9.08,3.68-12.76,12.76-12.76h24C948.83,72.71,952.51,76.39,952.51,85.47Zm-19,5c0-1.51-.86-2.16-2.38-2.16h-5.84c-1.51,0-2.37.65-2.37,2.16v14.28c0,1.51.86,2.16,2.37,2.16h5.84c1.52,0,2.38-.65,2.38-2.16Z"/><path class="cls-1" d="M386.43,310.64v-61c0-5.18,2.82-8,8-8h10.67c5.18,0,8,2.82,8,8v3c2.66-7.86,10.37-12.6,19.26-12.6,9.33,0,16.89,4.15,21.33,12.15,7.56-10.52,15.71-12.15,24.16-12.15,20.59,0,27.71,18.67,27.71,34.08v36.6c0,5.19-2.82,8-8,8H486.9c-5.19,0-8-2.81-8-8V275.53c0-8.45-2.67-14.38-9-14.38s-10.38,5.63-10.52,15.71v33.78c0,5.19-2.82,8-8,8H440.67c-5.19,0-8-2.81-8-8V275.53c0-8.45-2.66-14.38-9-14.38s-10.52,5.93-10.52,16.15v33.34c0,5.19-2.82,8-8,8H394.44C389.25,318.64,386.43,315.83,386.43,310.64Z"/><path class="cls-1" d="M520.1,280.12c0-22.23,18.22-40.16,43.56-40.16,25.49,0,43.56,17.93,43.56,40.16s-18.07,40.15-43.56,40.15C538.32,320.27,520.1,302.34,520.1,280.12Zm62.23,0c0-11-8-19-18.67-19s-18.52,8.15-18.52,19,7.85,19.11,18.52,19.11S582.33,291.08,582.33,280.12Z"/><path class="cls-1" d="M623.08,310.64v-61c0-5.18,2.82-8,8-8h10.67c5.19,0,8,2.82,8,8v3C652.42,244.7,660.13,240,669,240c9.33,0,16.89,4.15,21.33,12.15,7.56-10.52,15.71-12.15,24.16-12.15,20.59,0,27.7,18.67,27.7,34.08v36.6c0,5.19-2.81,8-8,8H723.55c-5.19,0-8-2.81-8-8V275.53c0-8.45-2.66-14.38-9-14.38s-10.38,5.63-10.53,15.71v33.78c0,5.19-2.81,8-8,8H677.31c-5.18,0-8-2.81-8-8V275.53c0-8.45-2.66-14.38-9-14.38s-10.51,5.93-10.51,16.15v33.34c0,5.19-2.82,8-8,8H631.08C625.9,318.64,623.08,315.83,623.08,310.64Z"/><path class="cls-1" d="M756.74,280.12c0-22.23,18.23-40.16,43.57-40.16s43.56,17.93,43.56,40.16-18.08,40.15-43.56,40.15S756.74,302.34,756.74,280.12Zm62.24,0c0-11-8-19-18.67-19s-18.52,8.15-18.52,19,7.85,19.11,18.52,19.11S819,291.08,819,280.12Z"/><path class="cls-1" d="M867,347.09c-4.74-2.07-5.63-6.37-3.11-10.81l2.22-4c2.52-4.44,6.08-5.33,10.67-3.11a40.16,40.16,0,0,0,17.63,4.3c12.15,0,21-6.37,21-21.19v-3.85c-4.74,7.7-13.63,11.85-23.7,11.85-21,0-36.31-18.07-36.31-40.15S870.7,240,891.74,240c10.07,0,18.52,4.15,23.26,12v-3.4c0-4.74,2.81-7,8-7h10.08c5.18,0,8,2.82,8,8v61.2c0,31.12-19.71,42.67-43.86,42.67C886,353.46,875.58,351.24,867,347.09Zm48.45-67c0-11-6.66-19.71-16.89-19.71-10.52,0-17,8.89-17,19.71s6.52,19.7,17,19.7C908.78,299.82,915.44,291.08,915.44,280.12Z"/><path class="cls-1" d="M956.64,280.12c0-22.23,18.23-40.16,43.56-40.16,25.49,0,43.57,17.93,43.57,40.16s-18.08,40.15-43.57,40.15C974.87,320.27,956.64,302.34,956.64,280.12Zm62.23,0c0-11-8-19-18.67-19s-18.52,8.15-18.52,19,7.85,19.11,18.52,19.11S1018.87,291.08,1018.87,280.12Z"/><path class="cls-2" d="M273,261.67c5.85-12.88,11.38-25,10.9-32.18-.53-7.94-4.46-39.72-6.58-56.63a5.66,5.66,0,0,0-6.72-4.86A492.86,492.86,0,0,1,174,177.24,493.54,493.54,0,0,1,77.51,168a5.67,5.67,0,0,0-6.73,4.86c-2.12,16.91-6,48.69-6.58,56.63-.47,7.14,5.06,19.3,10.91,32.18,10.77,23.69,24.16,53.17,6.7,70.27a36.3,36.3,0,0,1-4.37,3.64,5.68,5.68,0,0,0,2.28,10.22c19.43,3.55,52,7.82,94.22,7.84h.25c42.2,0,74.74-4.29,94.18-7.83a5.68,5.68,0,0,0,2.25-10.22,38.28,38.28,0,0,1-4.38-3.65C248.78,314.84,262.18,285.36,273,261.67Z"/><path class="cls-3" d="M311.93,147.78a5.69,5.69,0,0,0,3.86-5.62C311.46,28.33,194.22,18.91,175.21,18.91l-1.18,0-1.19,0c-19,0-136.26,9.41-140.58,123.26a5.7,5.7,0,0,0,3.86,5.62C76,161,123.94,168.15,174,168.15S272.13,161,311.93,147.78Z"/><polygon class="cls-3" points="159.88 324.87 174.51 340.63 192.15 324.12 173.76 304.24 159.88 324.87"/><path class="cls-3" d="M96.41,28a5.67,5.67,0,0,0,.52-9.91C80.88,8,54.06-6.34,44.4,3.06c-9.43,9.17.28,32.69,7.83,47.39a5.69,5.69,0,0,0,9,1.51A137.56,137.56,0,0,1,96.41,28Z"/><path class="cls-3" d="M295.82,50.46A152.53,152.53,0,0,0,303.54,33L290,19.51l17.35-2c.58-5.95-.32-11.13-3.72-14.44-9.67-9.4-36.49,4.95-52.54,15a5.67,5.67,0,0,0,.52,9.91,137.56,137.56,0,0,1,35.18,24A5.69,5.69,0,0,0,295.82,50.46Z"/><circle class="cls-1" cx="121.55" cy="68.39" r="8.58"/><circle class="cls-1" cx="226.5" cy="68.39" r="8.58"/><path class="cls-1" d="M207.83,98a4.54,4.54,0,0,0-4.54,4.54c0,4.14-2.81,12-13.42,12-6.57,0-9.85-6.78-11.1-10.25h0a4.28,4.28,0,0,0,.06-1.63,7.37,7.37,0,0,0,2.4-1.26l3.74-3a7.25,7.25,0,0,0,2.71-5.23l0-.45a7.23,7.23,0,0,0-5.09-7.34H165.45a7.24,7.24,0,0,0-5.1,7.34l0,.45a7.23,7.23,0,0,0,2.7,5.23l3.75,3a7.32,7.32,0,0,0,2.39,1.26,4.72,4.72,0,0,0,.06,1.63v0c-1.23,3.47-4.48,10.22-11.11,10.22-10.61,0-13.41-7.82-13.41-12a4.55,4.55,0,0,0-9.09,0,21.2,21.2,0,0,0,5.42,14c2.9,3.2,8.22,7,17.08,7,6.37,0,11.82-3,15.85-8.79,4,5.76,9.47,8.79,15.84,8.79,8.87,0,14.18-3.81,17.08-7a21.15,21.15,0,0,0,5.42-14A4.54,4.54,0,0,0,207.83,98Z"/><path class="cls-1" d="M121,102.38a4.27,4.27,0,0,1-1.06-.13L95.75,96.43a4.55,4.55,0,0,1,2.13-8.84l24.17,5.82a4.55,4.55,0,0,1-1.06,9Z"/><path class="cls-1" d="M120,118.31h-.23L94.47,117a4.55,4.55,0,0,1,.46-9.08l25.31,1.28a4.54,4.54,0,0,1-.22,9.08Z"/><path class="cls-1" d="M227.06,102.38a4.55,4.55,0,0,1-1.06-9l24.18-5.82a4.55,4.55,0,1,1,2.12,8.84l-24.17,5.82A4.41,4.41,0,0,1,227.06,102.38Z"/><path class="cls-1" d="M228,118.31a4.54,4.54,0,0,1-.23-9.08L253.12,108a4.55,4.55,0,1,1,.46,9.08l-25.31,1.27Z"/><path class="cls-1" d="M227.69,299.87a4.55,4.55,0,0,0-4.54,4.55c0,6.12-1.71,10.72-5.07,13.68-6.27,5.51-16.59,4.25-16.68,4.24l-.61,0c-6.74,0-12.49-3.54-17.1-10.52a.61.61,0,0,1-.07-.1,7.87,7.87,0,0,0,5.47-6l1.3-6.78a7.88,7.88,0,0,0-8-9.13H165.71c-5.1,0-9,4.38-8.05,9.13l1.3,6.78a7.9,7.9,0,0,0,5.47,6l-.06.1c-4.61,7-10.37,10.52-17.11,10.52l-.59,0c-.11,0-10.43,1.27-16.69-4.24-3.37-3-5.07-7.56-5.07-13.68a4.55,4.55,0,1,0-9.09,0c0,8.88,2.76,15.8,8.21,20.56,6.49,5.66,15.07,6.58,20,6.58a34.74,34.74,0,0,0,3.53-.17,26.48,26.48,0,0,0,10.51-2.24c1.62,3.64,6.69,12.66,17,12.66,5.45,0,10.15-2.58,13.59-7.46a25.17,25.17,0,0,0,2.57-4.7,26.73,26.73,0,0,0,9.28,1.74,34.37,34.37,0,0,0,3.53.17c4.9,0,13.49-.92,20-6.58,5.45-4.76,8.21-11.68,8.21-20.56A4.55,4.55,0,0,0,227.69,299.87ZM183.26,325c0,.08-2.16,7.7-8.18,7.7s-9-7.91-9-8a4.88,4.88,0,0,0-.29-.66,38.73,38.73,0,0,0,6.34-7.54c.7-1.08,1.34-2.17,1.92-3.23.58,1.06,1.21,2.15,1.92,3.23a37.11,37.11,0,0,0,7.34,8.39Z"/><path class="cls-1" d="M71.33,275.47h0q-1.1-2.52-2.22-5l0-.1c-.74-1.66-1.49-3.3-2.23-4.93q-1.5-3.3-2.91-6.45c-5.28-11.83-9.32-22.1-8.79-30.1.64-9.57,5.84-50.92,7.49-64L58,163.59q-9.68-2.44-18.87-5.31l-2.49-.7a5.7,5.7,0,0,0-6.78,3.28,510.88,510.88,0,0,0-20,56.46c-12.6,44.45-13.11,76-1.48,91.31,12.69,16.69,26,25.65,39.67,26.64,15.73,1.15,26.27-8.7,27.42-9.82,11-10.77,4.34-30.61-4.12-50Z"/><path class="cls-1" d="M338.22,217.32a512.76,512.76,0,0,0-20.08-56.68,5.42,5.42,0,0,0-6.48-3.11l-3.06.86q-9.09,2.82-18.66,5.24h0a5.43,5.43,0,0,0-3.92,5.91c2.05,16.28,6.32,50.71,6.9,59.34.63,9.42-5.09,22-11.7,36.55-10.09,22.21-21.53,47.37-8.62,60,1.15,1.12,11.69,10.95,27.42,9.82,13.63-1,27-9.95,39.67-26.64C351.32,293.35,350.81,261.77,338.22,217.32Z"/><path class="cls-1" d="M174,18.93l-1.19,0c-.78,0-1.75,0-2.86.06V33.05a4.55,4.55,0,0,0,9.09,0V19c-1.54-.07-2.84-.1-3.86-.1Z"/><path class="cls-1" d="M157.43,37.59a4.86,4.86,0,0,0,.92-.09,4.55,4.55,0,0,0,3.54-5.36l-2.52-12.38c-2.75.3-5.78.69-9,1.2L153,34A4.55,4.55,0,0,0,157.43,37.59Z"/><path class="cls-1" d="M189.71,37.5a4.68,4.68,0,0,0,.91.09A4.54,4.54,0,0,0,195.07,34l2.65-13c-3.26-.51-6.28-.9-9-1.2l-2.53,12.38A4.55,4.55,0,0,0,189.71,37.5Z"/><path class="cls-1" d="M104.72,207.65a41.81,41.81,0,0,0-39.6,29c1.77,6.91,5.79,15.78,10,25a277.89,277.89,0,0,1,10.83,26.21,41.07,41.07,0,0,0,18.78,4.54c23,0,41.74-19,41.74-42.39S127.77,207.65,104.72,207.65Zm16.83,59.17a8.58,8.58,0,1,1,8.58-8.57A8.57,8.57,0,0,1,121.55,266.82Z"/><circle class="cls-1" cx="226.5" cy="258.25" r="8.58"/><path class="cls-4" d="M58,163.59l-18.87-5.31Q48.27,161.14,58,163.59Z"/><path class="cls-4" d="M308.6,158.39l-18.66,5.24Q299.5,161.22,308.6,158.39Z"/></g></g></svg>